<?xml version="1.0" encoding="UTF-8"?>
<svg version="1.1" xmlns="http://www.w3.org/2000/svg" width="2432" height="358">
<path d="M0 0 C802.56 0 1605.12 0 2432 0 C2432 118.14 2432 236.28 2432 358 C1629.44 358 826.88 358 0 358 C0 239.86 0 121.72 0 0 Z " fill="#FEFEFE" transform="translate(0,0)"/>
<path d="M0 0 C38.44461653 -0.1209091 38.44461653 -0.1209091 54.68554688 -0.14648438 C65.85282576 -0.16421233 77.02003622 -0.1849318 88.18725586 -0.22631836 C96.32410139 -0.25645944 104.46089084 -0.27563085 112.59779066 -0.28226548 C116.89608079 -0.28613645 121.19421066 -0.29506723 125.49244881 -0.31719017 C172.27416028 -0.54829952 216.82006366 5.83839075 251.9375 39.4375 C274.09889638 62.66052016 282.16028712 92.66197945 282.14526367 124.08251953 C282.15030159 125.63648689 282.15030159 125.63648689 282.15544128 127.22184753 C282.1648528 130.60884844 282.16688953 133.99579938 282.16796875 137.3828125 C282.1711885 139.76634745 282.1745531 142.1498822 282.17805481 144.53341675 C282.1840219 149.51772519 282.18589724 154.50201636 282.18530273 159.48632812 C282.18520134 165.82689028 282.19884127 172.16733989 282.21607494 178.50787544 C282.22727517 183.42913304 282.22921948 188.35036412 282.22869301 193.27163315 C282.22986154 195.60685488 282.2342188 197.94207756 282.24202538 200.27728653 C282.31996291 226.00103754 280.41910545 249.64214836 269 273 C268.53851563 273.97453125 268.07703125 274.9490625 267.6015625 275.953125 C253.25232179 304.31983208 225.44297347 322.29484486 196 332 C178.72763886 337.1110174 161.58365918 339.318935 143.60961914 339.22705078 C142.03107205 339.22648491 140.45252444 339.22680665 138.87397766 339.22793579 C134.63941621 339.22850344 130.4049709 339.21684575 126.17043614 339.20278788 C121.72621471 339.19018116 117.28198985 339.18910226 112.8377533 339.18673706 C104.44464325 339.18055123 96.05158607 339.16418015 87.65849918 339.14403808 C76.30089503 339.11738043 64.94327614 339.10668299 53.58564854 339.09503365 C35.72372619 339.07629706 17.86191533 339.03643224 0 339 C0 297.75 0 256.5 0 214 C31.35 214 62.7 214 95 214 C95 236.77 95 259.54 95 283 C100.35270974 279.43152684 105.46160439 276.00019972 110.4375 272 C111.6428303 271.04246645 112.84858131 270.08546231 114.0546875 269.12890625 C114.68858398 268.62504395 115.32248047 268.12118164 115.97558594 267.60205078 C119.65365534 264.69135476 123.35874078 261.81538678 127.0625 258.9375 C127.83263428 258.33873047 128.60276855 257.73996094 129.39624023 257.12304688 C134.78164149 252.93892064 140.18416631 248.77781172 145.59375 244.625 C149.74241368 241.43372025 153.87032481 238.215787 158 235 C164.18146123 230.18648277 170.37921882 225.39575121 176.59375 220.625 C180.74241368 217.43372025 184.87032481 214.215787 189 211 C195.18002293 206.18760278 201.37587405 201.39740133 207.58984375 196.62890625 C210.97425103 194.02575078 214.34055471 191.39957941 217.70751953 188.77392578 C225.41173511 182.76613918 233.15089637 176.81757093 241 171 C236.85023163 166.61145528 232.28878945 162.98162295 227.5 159.3125 C226.29633789 158.3834082 226.29633789 158.3834082 225.06835938 157.43554688 C222.71493801 155.62015789 220.35800616 153.80942784 218 152 C216.8540381 151.11865672 215.70818928 150.23716638 214.5625 149.35546875 C212.511142 147.77770233 210.45905142 146.20088796 208.40625 144.625 C203.47145464 140.82900357 198.56454869 136.99701961 193.65234375 133.171875 C189.27855923 129.76757571 184.89641293 126.37502406 180.5 123 C174.53010829 118.41705283 168.59045507 113.79589513 162.65234375 109.171875 C158.27855923 105.76757571 153.89641293 102.37502406 149.5 99 C142.09711533 93.31547626 134.73438129 87.57963243 127.37011719 81.84521484 C123.39374458 78.74947688 119.41553085 75.65610662 115.4375 72.5625 C114.01952262 71.45964651 112.60155359 70.35678228 111.18359375 69.25390625 C110.50538574 68.72812988 109.82717773 68.20235352 109.12841797 67.66064453 C107.60517273 66.47217078 106.08938443 65.27411507 104.57861328 64.06982422 C103.78052246 63.43705566 102.98243164 62.80428711 102.16015625 62.15234375 C101.43578369 61.57347412 100.71141113 60.99460449 99.96508789 60.39819336 C97.95189356 58.82155854 97.95189356 58.82155854 95 58 C95 80.77 95 103.54 95 127 C63.65 127 32.3 127 0 127 C0 85.09 0 43.18 0 0 Z " fill="#FD0000" transform="translate(11,12)"/>
<path d="M0 0 C1.10031303 0.00303635 1.10031303 0.00303635 2.22285461 0.00613403 C2.99192642 0.00438171 3.76099823 0.00262939 4.55337524 0.00082397 C7.10793787 -0.00359483 9.66243185 -0.00065646 12.21699524 0.00271606 C13.98437005 0.00204303 15.75174477 0.00107302 17.51911926 -0.00018311 C21.22815327 -0.00166012 24.93716324 0.00049458 28.64619446 0.00515747 C33.41147017 0.01085476 38.17668956 0.00757577 42.9419632 0.00158501 C46.59295581 -0.00202052 50.24393497 -0.00088206 53.89492798 0.0017128 C55.65248623 0.00238209 57.41004569 0.00155357 59.16760254 -0.00076675 C61.61964678 -0.00329314 64.07159855 0.0005471 66.52363586 0.00613403 C67.25717789 0.0041098 67.99071991 0.00208557 68.74649048 0 C73.7589826 0.02126592 73.7589826 0.02126592 74.87324524 1.13552856 C74.98267706 3.43879584 75.02018419 5.74547744 75.03146362 8.05131531 C75.03887059 9.14903075 75.03887059 9.14903075 75.04642719 10.26892227 C75.06187706 12.73951063 75.07018294 15.21007286 75.0785675 17.68069458 C75.08814016 19.44436882 75.09814986 21.20804074 75.10856628 22.97171021 C75.13568788 27.77520199 75.15665803 32.57870368 75.17656827 37.38223004 C75.19838324 42.39644519 75.22579381 47.41062958 75.25262451 52.42481995 C75.3026123 61.92687387 75.34752847 71.42894481 75.39064687 80.93103212 C75.43996735 91.74586379 75.49490466 102.56066461 75.55032647 113.37546647 C75.66423991 135.62879178 75.77105845 157.88214652 75.87324524 180.13552856 C77.79342419 177.90323106 79.71253813 175.6700327 81.63105774 173.43630981 C82.17093323 172.80889893 82.71080872 172.18148804 83.26704407 171.5350647 C86.80819926 167.41000996 90.24793157 163.22112894 93.61933899 158.95584106 C96.64415491 155.17088943 99.72718141 151.43517607 102.81074524 147.69802856 C103.42055237 146.95883179 104.0303595 146.21963501 104.65864563 145.45803833 C105.85286269 144.01049763 107.0471162 142.56298699 108.2414093 141.11550903 C111.79845966 136.79957869 115.33531607 132.46713766 118.87324524 128.13552856 C122.9965312 123.0872469 127.12336961 118.04217199 131.27168274 113.01443481 C131.87601135 112.28176392 132.48033997 111.54909302 133.10298157 110.79421997 C134.28444841 109.36235833 135.46653075 107.93100421 136.64936829 106.50027466 C137.20922424 105.82174438 137.7690802 105.14321411 138.34590149 104.44412231 C139.18168228 103.47526344 139.18168228 103.47526344 140.03434753 102.48683167 C141.94043391 100.19429349 141.94043391 100.19429349 143.22503662 97.56159973 C145.42094007 93.82555803 147.5304073 90.78070088 151.89302254 89.57932091 C158.22768242 88.69248993 164.62284294 88.99052759 170.99824524 89.15896606 C173.07185956 89.17763368 175.14551819 89.19186057 177.2191925 89.20184326 C182.6586587 89.23989795 188.09542447 89.33801141 193.53382874 89.44888306 C199.09060639 89.55146097 204.64782352 89.59691156 210.20527649 89.64724731 C221.09578137 89.75426899 231.98428816 89.92478011 242.87324524 90.13552856 C241.07298111 93.99684515 238.59229991 96.81527923 235.68574524 99.88552856 C234.68375808 100.96041119 233.68245519 102.03593209 232.68183899 103.11209106 C232.19699036 103.63190552 231.71214172 104.15171997 231.21260071 104.68728638 C228.95828007 107.12487844 226.79047039 109.6352833 224.61543274 112.14334106 C222.55824125 114.49573492 220.46727609 116.81587822 218.37324524 119.13552856 C215.68341093 122.11615577 213.0101416 125.10798089 210.37324524 128.13552856 C207.73634888 131.16307624 205.06307955 134.15490136 202.37324524 137.13552856 C197.57416732 142.4588755 192.83246574 147.82416195 188.19355774 153.28787231 C183.06631579 159.31867516 177.8864187 165.27311174 172.49824524 171.07302856 C171.99833069 171.61540161 171.49841614 172.15777466 170.98335266 172.71658325 C168.9274735 174.94404461 166.86055225 177.14822155 164.71699524 179.29177856 C162.80204825 181.18115443 162.80204825 181.18115443 160.87324524 184.13552856 C162.03287284 189.7487984 165.2544661 194.55856695 168.12324524 199.44802856 C169.2128766 201.32890812 170.30137063 203.2104469 171.38887024 205.09255981 C171.9592804 206.07820923 172.52969055 207.06385864 173.11738586 208.07937622 C176.08182541 213.2391168 178.97536511 218.43820865 181.87324524 223.63552856 C186.16734426 231.32511185 190.49097365 238.99584655 194.87324524 246.63552856 C199.86406824 255.3361077 204.77122075 264.0816856 209.66230774 272.83865356 C213.83754652 280.30626125 218.06543644 287.74183789 222.32319641 295.16262817 C226.90543617 303.16192482 231.40640647 311.20604324 235.89082336 319.26052856 C236.4380304 320.24150513 236.98523743 321.22248169 237.54902649 322.23318481 C238.08608215 323.19627563 238.62313782 324.15936646 239.1764679 325.15164185 C241.56851012 329.35819437 244.06681073 333.50031762 246.57710266 337.63723755 C247.87324524 340.13552856 247.87324524 340.13552856 247.87324524 343.13552856 C217.51324524 343.13552856 187.15324524 343.13552856 155.87324524 343.13552856 C150.59324524 332.90552856 145.31324524 322.67552856 139.87324524 312.13552856 C135.48471258 304.09689381 135.48471258 304.09689381 131.07637024 296.06912231 C126.21140476 287.13906181 121.61748804 278.06521202 116.97724915 269.01712036 C116.26292499 267.62428204 115.54857007 266.23145949 114.83418274 264.83865356 C114.48936859 264.1663118 114.14455444 263.49397003 113.78929138 262.80125427 C109.8902973 255.20725119 105.90526216 247.65966271 101.87324524 240.13552856 C97.30471098 243.5758335 94.09997856 247.41798113 90.60414124 251.90574646 C88.80884353 254.11671202 86.93796819 256.05316986 84.81495667 257.9499054 C78.74936898 263.50072 74.86785522 268.06210193 74.41914368 276.49612427 C74.3371587 279.60681105 74.40094616 282.70125275 74.48262024 285.81130981 C74.48256377 287.4742566 74.47719844 289.13721077 74.46681213 290.80012512 C74.45374737 295.13339856 74.51176378 299.46277336 74.58570862 303.7953186 C74.6485103 308.23350859 74.64256463 312.67158179 74.64277649 317.11013794 C74.65313653 325.78658248 74.73874953 334.46012346 74.87324524 343.13552856 C64.45981599 343.15865216 54.0463928 343.17644373 43.63294315 343.18734074 C38.79807697 343.19256953 33.9632283 343.19966711 29.12837219 343.21096802 C24.46647404 343.22179703 19.80459278 343.22780543 15.14268303 343.23040581 C13.36000235 343.23226003 11.57732265 343.23588059 9.79464912 343.24125862 C7.30658563 343.24846925 4.81859281 343.2495195 2.33052063 343.24905396 C1.21382492 343.25444687 1.21382492 343.25444687 0.0745697 343.25994873 C-5.0127026 343.24958073 -5.0127026 343.24958073 -6.12675476 342.13552856 C-6.22515813 340.3224531 -6.25231107 338.50549454 -6.2525959 336.68975067 C-6.25520365 335.50053843 -6.2578114 334.31132619 -6.26049817 333.08607721 C-6.25833565 331.74949281 -6.25607897 330.41290856 -6.2537384 329.07632446 C-6.25488926 327.66961676 -6.25647654 326.26290937 -6.25846565 324.8562026 C-6.26266385 320.97244781 -6.26056608 317.0887174 -6.25747943 313.20496249 C-6.25522753 309.02359773 -6.25870389 304.84223732 -6.26145935 300.66087341 C-6.26591831 292.46238214 -6.26494003 284.26389999 -6.26204671 276.06540835 C-6.25979317 269.40544664 -6.25947994 262.74548749 -6.26057053 256.08552551 C-6.26072376 255.13955154 -6.26087699 254.19357757 -6.26103487 253.21893772 C-6.26135458 251.29752799 -6.26167879 249.37611825 -6.26200746 247.45470852 C-6.26486262 229.41524017 -6.26157467 211.37577689 -6.25620709 193.33630937 C-6.25173902 177.83985516 -6.25251494 162.34340843 -6.25712585 146.84695435 C-6.26247098 128.87436312 -6.26458793 110.90177635 -6.26151359 92.92918444 C-6.26119502 91.0146335 -6.26088065 89.10008256 -6.26057053 87.18553162 C-6.26041625 86.24340571 -6.26026198 85.30127981 -6.26010302 84.33060464 C-6.25923768 77.6745697 -6.26070111 71.01853756 -6.26305008 64.36250305 C-6.2658476 56.25687108 -6.26511084 48.15124879 -6.25976934 40.04561794 C-6.25713167 35.90583695 -6.25612835 31.76607216 -6.25941849 27.62629128 C-6.26238012 23.84276945 -6.26079089 20.05927894 -6.25544094 16.27575999 C-6.25431617 14.90094974 -6.25490922 13.52613688 -6.25731672 12.15132827 C-6.26032072 10.29465609 -6.25666727 8.4379766 -6.2525959 6.58130646 C-6.25243355 5.54635119 -6.2522712 4.51139592 -6.25210392 3.44507837 C-6.01768096 -0.87414883 -3.78316758 0.01605041 0 0 Z " fill="#000000" transform="translate(2179.126754760742,8.864471435546875)"/>
<path d="M0 0 C1.33588669 0.00456207 1.33588669 0.00456207 2.69876099 0.00921631 C36.15280819 0.17755079 68.99869446 7.17301911 94.11328125 30.58203125 C110.82749419 48.07515897 114.95095429 70.8572771 114.97021484 94.12597656 C114.9748936 95.48910177 114.98003887 96.85222544 114.98561096 98.21534729 C114.99683145 101.13879497 115.00529537 104.06223283 115.01173019 106.98569489 C115.02252172 111.64030099 115.04280255 116.29483717 115.06484985 120.94940186 C115.12637772 134.18221758 115.18043561 147.41503043 115.21386719 160.64794922 C115.23243646 167.9664518 115.26165213 175.28483772 115.3018719 182.60325408 C115.32259625 186.45666437 115.33834816 190.30992988 115.34067917 194.16339874 C115.35499768 212.84608184 116.19474006 231.07618377 118.54467201 249.63056564 C118.82364356 252.55428851 118.8125 255.50049804 118.8125 258.4375 C93.4025 258.4375 67.9925 258.4375 41.8125 258.4375 C39.49107143 238.70535714 39.49107143 238.70535714 39.8125 230.4375 C39.173125 231.076875 38.53375 231.71625 37.875 232.375 C37.4109375 232.83261719 36.946875 233.29023438 36.46875 233.76171875 C35.27614202 234.9683905 34.11264183 236.20408194 32.96875 237.45703125 C17.59727244 253.83224336 -4.78883423 262.60420707 -27.07470703 263.56152344 C-55.12544513 264.25434545 -82.76539028 261.25437931 -104.125 241.25 C-117.97891465 226.48898379 -123.82458087 206.92206002 -123.4375 186.890625 C-121.9615861 166.50456428 -114.27916729 148.48816219 -98.79443359 134.78271484 C-74.53953126 114.47817035 -42.28875526 107.53600282 -11.40234375 107.12109375 C-10.10551163 107.10031265 -8.8086795 107.07953156 -7.47254944 107.05812073 C-4.05486909 107.00340181 -0.63713382 106.95377524 2.78063965 106.90527344 C6.28024071 106.85468761 9.77976379 106.7991968 13.27929688 106.74414062 C20.12363011 106.63717464 26.96803406 106.5355978 33.8125 106.4375 C33.84172833 102.90236134 33.85937532 99.36725415 33.875 95.83203125 C33.88337891 94.83562622 33.89175781 93.83922119 33.90039062 92.81262207 C33.93577984 82.13613709 32.87490396 74.299693 25.19921875 66.3828125 C13.67838201 56.99267061 -1.12536336 57.51310688 -15.1875 58.4375 C-24.85294931 59.7050285 -31.7618114 63.98404485 -37.8359375 71.46875 C-40.96358326 76.02462706 -40.57645675 81.26597891 -40.90625 86.6015625 C-41.1875 89.4375 -41.1875 89.4375 -42.1875 90.4375 C-44.39617831 90.53182985 -46.60791521 90.55492431 -48.81860352 90.55102539 C-49.51125305 90.55117142 -50.20390259 90.55131744 -50.9175415 90.5514679 C-53.21719446 90.55076874 -55.51676737 90.54297628 -57.81640625 90.53515625 C-59.40681412 90.53329208 -60.99722257 90.53186817 -62.58763123 90.53086853 C-66.7814593 90.52704329 -70.97525295 90.51721295 -75.16906738 90.50616455 C-79.44538914 90.49595057 -83.72171644 90.49137094 -87.99804688 90.48632812 C-96.39454708 90.47559069 -104.79101926 90.45851419 -113.1875 90.4375 C-113.2353469 87.28130323 -113.26378644 84.12520184 -113.2890625 80.96875 C-113.30267822 80.08606445 -113.31629395 79.20337891 -113.33032227 78.29394531 C-113.44383086 59.3292788 -105.73980529 43.40788394 -92.72265625 29.875 C-85.87002459 23.27393338 -78.57884082 18.74944765 -70.1875 14.4375 C-68.88425781 13.74720703 -68.88425781 13.74720703 -67.5546875 13.04296875 C-61.80522177 10.20428269 -55.79437008 8.22170664 -49.6875 6.3125 C-48.93581543 6.07063965 -48.18413086 5.8287793 -47.40966797 5.57958984 C-31.91773209 0.9393241 -16.07740015 -0.1172941 0 0 Z " fill="#000000" transform="translate(1784.1875,93.5625)"/>
<path d="M0 0 C0.74066208 -0.00705963 1.48132416 -0.01411926 2.24443054 -0.02139282 C32.97123517 -0.24780276 32.97123517 -0.24780276 46.07421875 3.203125 C46.86602539 3.40180176 47.65783203 3.60047852 48.47363281 3.80517578 C75.30302547 10.67461176 101.52593284 24.84091999 116.21582031 49.08740234 C126.21270591 66.46169215 128.23781595 84.35911395 128.20703125 104.140625 C128.20770585 105.67236344 128.20867717 107.20410177 128.20993042 108.73583984 C128.2113965 111.92628003 128.2092857 115.11669202 128.20458984 118.30712891 C128.19885428 122.4040599 128.2022024 126.50092593 128.20816231 130.59785461 C128.21176446 133.75128679 128.21063161 136.90470336 128.20803452 140.05813599 C128.20736628 141.57007861 128.20819007 143.08202264 128.21051407 144.59396362 C128.21303907 146.69549362 128.20920402 148.79691561 128.20361328 150.8984375 C128.20281769 152.09484863 128.20202209 153.29125977 128.20120239 154.52392578 C128.07421875 157.203125 128.07421875 157.203125 127.07421875 158.203125 C125.04927253 158.29988914 123.02089333 158.32499486 120.99363708 158.32337952 C120.03067887 158.32466115 120.03067887 158.32466115 119.04826695 158.32596868 C116.88167821 158.32762521 114.71516568 158.32209933 112.54858398 158.31665039 C111.00165814 158.31636853 109.45473216 158.31652623 107.9078064 158.3170929 C103.69517843 158.31738092 99.48257869 158.31148349 95.2699573 158.30451894 C90.87236087 158.29828612 86.47476386 158.29768166 82.0771637 158.29649353 C73.74381362 158.29338 65.4104766 158.28516632 57.07713228 158.27514404 C47.59240621 158.26398357 38.10767953 158.25847262 28.62294853 158.25344861 C9.10669786 158.24298373 -10.40954065 158.22538387 -29.92578125 158.203125 C-29.49391956 160.76527828 -29.04949241 163.32417183 -28.59765625 165.8828125 C-28.4776123 166.60299561 -28.35756836 167.32317871 -28.23388672 168.06518555 C-27.14095874 174.15982531 -25.11290068 178.56523912 -20.92578125 183.203125 C-20.46945312 183.72777344 -20.013125 184.25242187 -19.54296875 184.79296875 C-11.02275614 193.20166025 2.54955446 198.19582612 14.07421875 200.203125 C15.14542969 200.39648438 15.14542969 200.39648438 16.23828125 200.59375 C38.88377635 204.02215165 61.79732673 195.93056562 82.37719727 187.29980469 C87.75639299 185.09718308 87.75639299 185.09718308 91.07421875 186.203125 C92.4794838 188.97584954 93.70187154 191.68832719 94.875 194.55859375 C95.23385788 195.41181717 95.59271576 196.26504059 95.96244812 197.14411926 C97.11416252 199.88878068 98.25068015 202.6394432 99.38671875 205.390625 C100.14026321 207.19508475 100.89480965 208.99912642 101.65039062 210.80273438 C102.75922646 213.45035168 103.86575933 216.09877112 104.96365356 218.75094604 C106.59667005 222.69472645 108.24683104 226.62534263 109.98974609 230.52197266 C110.27746384 231.16983231 110.56518158 231.81769196 110.86161804 232.48518372 C111.621726 234.18666128 112.3928143 235.88322191 113.16479492 237.5793457 C114.07421875 240.203125 114.07421875 240.203125 113.07421875 243.203125 C110.66867549 244.60737614 108.34922972 245.80157338 105.82421875 246.953125 C105.06987549 247.30020508 104.31553223 247.64728516 103.53833008 248.00488281 C88.00097528 254.9595933 71.88058055 259.60003948 55.07421875 262.203125 C54.33042969 262.32026855 53.58664062 262.43741211 52.8203125 262.55810547 C29.11388775 266.07539468 2.55033358 266.23726022 -20.92578125 261.203125 C-21.71758789 261.03683594 -22.50939453 260.87054688 -23.32519531 260.69921875 C-53.41984323 254.14370851 -80.93388489 239.25246378 -98.01171875 212.99609375 C-109.45411383 194.41442652 -112.07530781 174.28516842 -112.09375 152.82421875 C-112.09697504 151.4443407 -112.10033997 150.06446296 -112.10383606 148.68458557 C-112.10978917 145.80265513 -112.11168008 142.9207545 -112.11108398 140.03881836 C-112.11100296 137.11915867 -112.11791232 134.19965666 -112.1315918 131.2800293 C-112.24996315 105.62213005 -112.04987736 81.54347428 -99.92578125 58.203125 C-99.15621094 56.70845703 -99.15621094 56.70845703 -98.37109375 55.18359375 C-84.72546718 30.2754285 -60.12412519 13.28256329 -33.14355469 5.38916016 C-22.20402699 2.471578 -11.36731355 0.07206244 0 0 Z " fill="#000000" transform="translate(729.92578125,93.796875)"/>
<path d="M0 0 C0.75219315 -0.00974854 1.50438629 -0.01949707 2.27937317 -0.02954102 C18.85855607 -0.20014933 34.86878486 -0.12035409 50.99609375 4.23828125 C51.68171387 4.4202002 52.36733398 4.60211914 53.07373047 4.78955078 C69.24256856 9.24923277 83.91723437 16.83113269 96.99609375 27.23828125 C97.89972656 27.94597656 98.80335938 28.65367188 99.734375 29.3828125 C114.79771455 42.00977986 123.72406836 60.05112437 126.99609375 79.23828125 C127.12628906 79.96660156 127.25648438 80.69492188 127.390625 81.4453125 C128.51761853 89.30421408 127.99609375 97.3578412 127.99609375 105.23828125 C102.25609375 105.23828125 76.51609375 105.23828125 49.99609375 105.23828125 C49.00609375 98.30828125 48.01609375 91.37828125 46.99609375 84.23828125 C43.57750633 75.05693217 38.54328504 69.25260723 29.68359375 64.92578125 C16.53403566 59.71981286 2.89066406 60.20348854 -10.08984375 65.73046875 C-18.69607642 70.18355965 -23.74186926 76.63211696 -26.85977173 85.73779297 C-29.29447877 94.5711865 -29.44302536 103.09981721 -29.40234375 112.17578125 C-29.40437086 113.78898245 -29.40728756 115.40218275 -29.41104126 117.01538086 C-29.4154347 120.37720566 -29.40913073 123.73878943 -29.39501953 127.10058594 C-29.37792933 131.37700089 -29.38778668 135.65285069 -29.40573692 139.929245 C-29.41665604 143.25472149 -29.41309149 146.58006734 -29.40535355 149.9055481 C-29.40337391 151.48096791 -29.4057307 153.05640019 -29.41279221 154.63180542 C-29.46272309 168.89637649 -28.32255307 181.3931378 -18.15234375 192.20703125 C-9.8482272 200.01488585 0.12041715 203.15745903 11.421875 203.2734375 C22.60308005 202.77242175 31.81608256 200.47036185 40.05078125 192.58984375 C47.93159995 183.06323159 48.136133 172.27773181 48.99609375 160.23828125 C75.06609375 160.23828125 101.13609375 160.23828125 127.99609375 160.23828125 C127.99609375 188.62602863 124.08748132 211.08533791 104.296875 232.00390625 C92.73761854 243.22953391 79.16160181 250.99070061 63.99609375 256.23828125 C63.01431152 256.58052734 63.01431152 256.58052734 62.01269531 256.9296875 C24.13563148 269.81930572 -21.01169707 267.43695956 -57.22265625 250.21484375 C-81.40315753 237.98663382 -99.47544578 218.01022273 -108.00390625 192.23828125 C-111.36698482 179.63987364 -112.17146132 167.41728956 -112.20703125 154.44140625 C-112.20985863 153.73668938 -112.212686 153.0319725 -112.21559906 152.30590057 C-112.23052166 148.56639749 -112.23979127 144.8269322 -112.24414062 141.08740234 C-112.24850049 138.04268242 -112.26230442 134.99824982 -112.28515625 131.95361328 C-112.53462052 98.03353966 -110.52145156 65.90504429 -87.00390625 39.23828125 C-86.56175781 38.65433594 -86.11960937 38.07039063 -85.6640625 37.46875 C-68.71687554 15.4734648 -37.9458935 5.04070793 -11.70727539 0.69189453 C-7.79429084 0.21260616 -3.9360874 0.04237775 0 0 Z " fill="#000000" transform="translate(2031.00390625,93.76171875)"/>
<path d="M0 0 C0.77359863 0.20367187 1.54719727 0.40734375 2.34423828 0.6171875 C19.98773498 5.43818091 36.15732826 14.07087406 50 26 C51.00546875 26.85464844 51.00546875 26.85464844 52.03125 27.7265625 C67.01253364 41.5502015 74.52901671 61.23213368 77 81 C77 87.6 77 94.2 77 101 C51.26 101 25.52 101 -1 101 C-1.66 94.73 -2.32 88.46 -3 82 C-6.6876808 72.37605254 -11.2867561 65.55346089 -20.53125 60.66015625 C-33.15984923 55.44157333 -46.84284907 56.09709476 -59.48046875 60.953125 C-68.53870359 65.23581764 -74.42338306 72.06006939 -77.8125 81.5 C-80.77151075 90.53843283 -80.16298637 100.51213317 -80.16796875 109.89453125 C-80.17119058 111.33265718 -80.17455532 112.7707828 -80.17805481 114.20890808 C-80.18401242 117.2119523 -80.18589819 120.21496788 -80.18530273 123.21801758 C-80.18520128 127.03366825 -80.19885104 130.84913214 -80.21607494 134.66473866 C-80.2272865 137.63246984 -80.22921916 140.60015716 -80.22869301 143.56790733 C-80.22985948 144.97307669 -80.23420461 146.37824769 -80.24202538 147.78339577 C-80.31459547 162.16686508 -79.56065635 175.80831497 -70.0625 187.35546875 C-61.44933163 195.79447379 -50.52274233 198.72706134 -38.7109375 199.12890625 C-27.04420698 198.72364087 -17.81644321 195.24476199 -9.6875 186.8125 C-2.45729169 177.5739005 -2.72972905 167.67566474 -2 156 C24.07 156 50.14 156 77 156 C77 186.32194869 72.41195177 208.55678991 51 230 C50.35417969 230.65742188 49.70835937 231.31484375 49.04296875 231.9921875 C33.65253397 246.5443633 11.46997433 254.28830011 -9 258 C-10.77890625 258.33644531 -10.77890625 258.33644531 -12.59375 258.6796875 C-49.66917789 264.46282048 -90.36408319 258.61137336 -121.9375 237.625 C-140.60197322 223.9472181 -154.68384231 205.84368751 -160 183 C-160.16590637 182.30948547 -160.33181274 181.61897095 -160.50274658 180.90753174 C-162.42678341 171.85443682 -162.3280124 162.8652428 -162.3359375 153.65625 C-162.34238312 151.87902729 -162.34911271 150.10180559 -162.35610962 148.32458496 C-162.36803048 144.60959419 -162.3717961 140.89469602 -162.37060547 137.1796875 C-162.3704032 132.4745335 -162.39763317 127.76998972 -162.43214989 123.06497955 C-162.45465671 119.3943828 -162.45843575 115.72392704 -162.45738602 112.05326843 C-162.45970921 110.32173066 -162.46834148 108.59018694 -162.48405075 106.85871887 C-162.71402626 78.88129873 -154.66799913 52.01309788 -134.74609375 31.7109375 C-133.83988281 30.81632812 -132.93367187 29.92171875 -132 29 C-131.18660156 28.18789062 -130.37320313 27.37578125 -129.53515625 26.5390625 C-123.30460912 20.62155744 -116.47786916 16.19448293 -109 12 C-107.91976562 11.3915625 -106.83953125 10.783125 -105.7265625 10.15625 C-96.21689506 5.10216101 -86.38870773 1.75206193 -76 -1 C-75.33178223 -1.18079102 -74.66356445 -1.36158203 -73.97509766 -1.54785156 C-51.18693181 -7.36487639 -22.56192146 -6.0803182 0 0 Z " fill="#000000" transform="translate(1034,98)"/>
<path d="M0 0 C26.73 0 53.46 0 81 0 C81 23.43 81 46.86 81 71 C98.82 71 116.64 71 135 71 C135.02094566 78.53811196 135.04098374 86.0761191 135.05175018 93.61423492 C135.05703983 97.12426493 135.0641132 100.63427095 135.07543945 104.14428711 C135.08834206 108.16780841 135.09322912 112.19130414 135.09765625 116.21484375 C135.10281754 117.47836166 135.10797882 118.74187958 135.11329651 120.04368591 C135.11337204 121.204814 135.11344757 122.36594208 135.11352539 123.56225586 C135.115746 124.59039902 135.11796661 125.61854218 135.12025452 126.67784119 C135 129 135 129 134 130 C132.34261557 130.09346915 130.68125356 130.11744977 129.02124023 130.11352539 C127.96021591 130.11344986 126.89919159 130.11337433 125.80601501 130.11329651 C124.651866 130.10813522 123.49771698 130.10297394 122.30859375 130.09765625 C121.13361832 130.0962413 119.95864288 130.09482635 118.74806213 130.09336853 C114.97784936 130.08774992 111.20769496 130.07519426 107.4375 130.0625 C104.88867273 130.0574874 102.33984453 130.05292408 99.79101562 130.04882812 C93.52732367 130.03777444 87.26366601 130.02101821 81 130 C81.06059886 144.61259864 81.13814408 159.22502584 81.23571491 173.83742619 C81.28062896 180.62264004 81.32005361 187.40780193 81.34643555 194.19311523 C81.37191362 200.74195608 81.41284799 207.29059495 81.46318626 213.83929253 C81.47986427 216.33708247 81.49137271 218.83491249 81.49761391 221.33275032 C81.50724445 224.83283871 81.53529286 228.33233325 81.56762695 231.83227539 C81.56619186 232.86374191 81.56475677 233.89520844 81.5632782 234.95793152 C81.65905926 242.29476059 82.4347336 247.3764321 87.75 252.8125 C94.89914232 257.62442272 101.95134181 257.28155684 110.3125 257.1875 C111.38951172 257.18685547 112.46652344 257.18621094 113.57617188 257.18554688 C119.49877456 257.15326134 125.28447522 256.8671315 131.16088867 256.11450195 C131.76779541 256.07671631 132.37470215 256.03893066 133 256 C134 257 134 257 134.12025452 259.39808655 C134.11803391 260.46175949 134.11581329 261.52543243 134.11352539 262.62133789 C134.11344986 263.82250748 134.11337433 265.02367706 134.11329651 266.26124573 C134.10813522 267.5685112 134.10297394 268.87577667 134.09765625 270.22265625 C134.09579198 271.56644132 134.09436812 272.91022707 134.09336853 274.25401306 C134.08954402 277.79682277 134.07971432 281.3395917 134.06866455 284.88238525 C134.05844899 288.49515227 134.0538706 292.10792584 134.04882812 295.72070312 C134.03809198 302.8138188 134.02101636 309.90690674 134 317 C129.0975233 318.71276337 124.3295032 320.30247829 119.1875 321.1328125 C118.17429687 321.29910156 117.16109375 321.46539062 116.1171875 321.63671875 C114.57417969 321.87841797 114.57417969 321.87841797 113 322.125 C111.97132812 322.29386719 110.94265625 322.46273438 109.8828125 322.63671875 C81.69853267 327.19066727 49.41530036 328.60530142 24.86499023 311.67138672 C11.13074936 301.56909399 4.36939371 286.94549943 1.4319191 270.39869499 C0.5476728 263.44071724 0.68969752 256.42700945 0.68115234 249.42407227 C0.67183362 247.66400706 0.66166212 245.90394619 0.65071106 244.14389038 C0.62345896 239.36893918 0.60824952 234.59401759 0.59528303 229.81900907 C0.57945491 224.73363141 0.55267779 219.6483101 0.5272522 214.56297302 C0.48572373 205.95565539 0.45129396 197.348334 0.421875 188.7409668 C0.38137813 176.89532772 0.32839579 165.04977171 0.2726016 153.20419621 C0.116356 119.7441989 -0.00585525 86.2841153 -0.02246094 52.82373047 C-0.02287903 51.98362183 -0.02329713 51.14351319 -0.02372789 50.27794671 C-0.03069163 33.51862094 -0.0123609 16.75932615 0 0 Z " fill="#000000" transform="translate(1144,31)"/>
<path d="M0 0 C26.73 0 53.46 0 81 0 C81 23.43 81 46.86 81 71 C98.49 71 115.98 71 134 71 C134 90.47 134 109.94 134 130 C116.51 130 99.02 130 81 130 C81.06656297 151.05095233 81.06656297 151.05095233 81.1718235 172.10161209 C81.21611298 179.63121873 81.25455465 187.1607052 81.27099609 194.69042969 C81.28542996 201.29118465 81.32058861 207.89162114 81.36830902 214.49223328 C81.38313032 217.00873225 81.39104144 219.52528186 81.39188385 222.04182434 C81.39425285 225.57058385 81.42132981 229.09836289 81.45410156 232.62695312 C81.4490712 233.66417511 81.44404083 234.70139709 81.43885803 235.77005005 C81.52671359 241.8966638 82.23937949 246.9873082 86 252 C91.26253236 256.30763683 97.01152599 257.12504513 103.60546875 257.1328125 C104.67216797 257.13410156 105.73886719 257.13539063 106.83789062 257.13671875 C107.94326172 257.13285156 109.04863281 257.12898438 110.1875 257.125 C111.27353516 257.12886719 112.35957031 257.13273437 113.47851562 257.13671875 C119.44022354 257.12955754 125.25012174 256.87952358 131.1652832 256.11669922 C132.07346802 256.05893311 132.07346802 256.05893311 133 256 C134 257 134 257 134.12025452 259.39808655 C134.11803391 260.46175949 134.11581329 261.52543243 134.11352539 262.62133789 C134.11344986 263.82250748 134.11337433 265.02367706 134.11329651 266.26124573 C134.10813522 267.5685112 134.10297394 268.87577667 134.09765625 270.22265625 C134.09579198 271.56644132 134.09436812 272.91022707 134.09336853 274.25401306 C134.08954402 277.79682277 134.07971432 281.3395917 134.06866455 284.88238525 C134.05844899 288.49515227 134.0538706 292.10792584 134.04882812 295.72070312 C134.03809198 302.8138188 134.02101636 309.90690674 134 317 C129.10973855 318.7072998 124.35030446 320.29890591 119.22265625 321.1328125 C118.21396484 321.29910156 117.20527344 321.46539062 116.16601562 321.63671875 C115.14185547 321.79785156 114.11769531 321.95898438 113.0625 322.125 C112.04220703 322.29386719 111.02191406 322.46273438 109.97070312 322.63671875 C81.27773523 327.28765292 48.78950869 328.57435088 24 311 C11.59215407 301.8314543 4.32505154 288.26687732 1.46667576 273.186203 C1.02552003 270.17423662 0.86217592 267.34289848 0.84178162 264.30200195 C0.83199248 263.18558067 0.82220335 262.06915939 0.81211758 260.91890717 C0.80636243 259.70430061 0.80060728 258.48969406 0.79467773 257.23828125 C0.78478097 255.94216164 0.7748842 254.64604202 0.76468754 253.31064606 C0.73758003 249.73189434 0.7165511 246.15312962 0.69668961 242.57433128 C0.67448909 238.74000294 0.64707489 234.90571106 0.6204834 231.07141113 C0.56986068 223.6276592 0.52497924 216.1838829 0.48234785 208.74008131 C0.44787519 202.73206322 0.41122012 196.72406186 0.37332153 190.71606445 C-0.02592982 127.143297 -0.10919187 63.57393572 0 0 Z " fill="#000000" transform="translate(1318,31)"/>
<path d="M0 0 C0.98548828 -0.01224609 1.97097656 -0.02449219 2.98632812 -0.03710938 C4.44522461 -0.04000977 4.44522461 -0.04000977 5.93359375 -0.04296875 C7.2318811 -0.04913208 7.2318811 -0.04913208 8.55639648 -0.05541992 C12.65961378 0.27615656 16.56808642 1.21893516 20.5625 2.1875 C20.58562589 11.0363239 20.60341634 19.88513747 20.61431217 28.73398495 C20.61954046 32.84244285 20.62663713 36.95088014 20.63793945 41.05932617 C20.64877025 45.02096828 20.65477724 48.98259052 20.65737724 52.94424629 C20.65923114 54.45898311 20.6628511 55.97371879 20.66823006 57.48844719 C20.67544307 59.60291813 20.67649083 61.71730594 20.67602539 63.83178711 C20.678246 65.03757919 20.68046661 66.24337128 20.68275452 67.48570251 C20.5625 70.1875 20.5625 70.1875 19.5625 71.1875 C17.9383884 71.20440398 16.31347189 71.14963653 14.69140625 71.06640625 C13.65483887 71.01766357 12.61827148 70.9689209 11.55029297 70.91870117 C10.41994629 70.86302979 9.28959961 70.8073584 8.125 70.75 C-30.89608602 67.84121461 -30.89608602 67.84121461 -65.1875 84.0625 C-68.87632069 88.03352555 -71.42016078 92.3332347 -73.875 97.125 C-74.20532227 97.76872559 -74.53564453 98.41245117 -74.87597656 99.07568359 C-79.5060031 108.76480196 -79.73561291 118.67129849 -79.74047852 129.25024414 C-79.7481555 130.63924648 -79.75670482 132.02824423 -79.76605225 133.41723633 C-79.78420904 136.38711602 -79.79632435 139.35693431 -79.80359077 142.32686043 C-79.81514232 147.02009432 -79.84062118 151.71319177 -79.86790466 156.40635681 C-79.90940541 163.82091366 -79.9418974 171.23547716 -79.97037882 178.65009445 C-80.02155713 191.95560375 -80.08342463 205.26105698 -80.15571922 218.56646818 C-80.18066953 223.23602556 -80.20008629 227.90556443 -80.21510136 232.57516396 C-80.22527095 235.46836729 -80.23941474 238.36154155 -80.25457764 241.2547226 C-80.26371346 243.24517574 -80.26783129 245.23564991 -80.27183533 247.22612 C-80.27873383 248.39943878 -80.28563232 249.57275757 -80.29273987 250.78163147 C-80.29852224 252.32044023 -80.29852224 252.32044023 -80.30442142 253.89033604 C-80.4375 256.1875 -80.4375 256.1875 -81.4375 257.1875 C-83.89655221 257.2878188 -86.32753428 257.3236818 -88.78710938 257.31689453 C-89.55618118 257.31864685 -90.32525299 257.32039917 -91.11763 257.32220459 C-93.67219263 257.3266234 -96.22668661 257.32368502 -98.78125 257.3203125 C-100.54862481 257.32098553 -102.31599953 257.32195555 -104.08337402 257.32321167 C-107.79240803 257.32468868 -111.501418 257.32253398 -115.21044922 257.31787109 C-119.97572493 257.3121738 -124.74094432 257.31545279 -129.50621796 257.32144356 C-133.15721057 257.32504908 -136.80818973 257.32391062 -140.45918274 257.32131577 C-142.21674099 257.32064647 -143.97430045 257.321475 -145.7318573 257.32379532 C-148.18390154 257.32632171 -150.63585331 257.32248146 -153.08789062 257.31689453 C-153.82143265 257.31891876 -154.55497467 257.32094299 -155.31074524 257.32302856 C-160.32323736 257.30176264 -160.32323736 257.30176264 -161.4375 256.1875 C-161.53386367 254.83743803 -161.56121954 253.4823713 -161.56054783 252.12887478 C-161.56253888 251.24906805 -161.56452993 250.36926131 -161.56658131 249.46279377 C-161.56366847 248.48518764 -161.56075563 247.50758151 -161.55775452 246.50035095 C-161.55860894 245.47044133 -161.55946337 244.44053171 -161.56034368 243.37941271 C-161.56200157 239.8999786 -161.55647208 236.42059184 -161.55102539 232.94116211 C-161.55074356 230.45828757 -161.55090117 227.97541294 -161.5514679 225.49253845 C-161.55169622 220.13248514 -161.54884478 214.7724468 -161.54323006 209.41239738 C-161.53511728 201.66258204 -161.53250007 193.91277258 -161.53124207 186.16295344 C-161.52905119 173.59064727 -161.52239016 161.01834758 -161.51293945 148.44604492 C-161.50376624 136.23022494 -161.49668496 124.01440671 -161.49243164 111.79858398 C-161.49216892 111.04612382 -161.49190619 110.29366366 -161.49163551 109.51840167 C-161.49033051 105.74368636 -161.48906679 101.96897104 -161.48782361 98.19425571 C-161.4774499 66.85866474 -161.45901101 35.5230858 -161.4375 4.1875 C-135.3675 4.1875 -109.2975 4.1875 -82.4375 4.1875 C-82.1075 17.0575 -81.7775 29.9275 -81.4375 43.1875 C-78.7975 39.5575 -76.1575 35.9275 -73.4375 32.1875 C-54.74681278 10.20329962 -28.42686963 0.01851913 0 0 Z " fill="#000000" transform="translate(1646.4375,94.8125)"/>
<path d="M0 0 C0.98548828 -0.01224609 1.97097656 -0.02449219 2.98632812 -0.03710938 C4.44522461 -0.04000977 4.44522461 -0.04000977 5.93359375 -0.04296875 C7.2318811 -0.04913208 7.2318811 -0.04913208 8.55639648 -0.05541992 C12.61443915 0.27250605 16.58817815 1.30431737 20.5625 2.1875 C20.5625 24.9575 20.5625 47.7275 20.5625 71.1875 C11.6525 70.8575 2.7425 70.5275 -6.4375 70.1875 C-27.17822525 69.55076913 -46.81975062 69.29181686 -63.625 83.25 C-73.88084152 92.9736988 -78.91237653 106.11162435 -79.5761652 120.11221886 C-79.58261775 121.13909624 -79.5890703 122.16597363 -79.59571838 123.22396851 C-79.6055072 124.41019806 -79.61529602 125.59642761 -79.62538147 126.81860352 C-79.63113693 128.10613525 -79.6368924 129.39366699 -79.64282227 130.72021484 C-79.65241049 132.10039558 -79.66242111 133.48057343 -79.67282104 134.86074829 C-79.69977393 138.59579258 -79.72083532 142.33084938 -79.74082303 146.06593657 C-79.76274215 149.97371906 -79.79010176 153.88146341 -79.81687927 157.78921509 C-79.86672622 165.18384834 -79.91169461 172.57850285 -79.95490164 179.97317755 C-80.01359175 189.96931678 -80.0798355 199.96540579 -80.14565182 209.96150017 C-80.24910134 225.70346623 -80.34247365 241.44547562 -80.4375 257.1875 C-106.8375 257.1875 -133.2375 257.1875 -160.4375 257.1875 C-160.4375 173.6975 -160.4375 90.2075 -160.4375 4.1875 C-134.6975 4.1875 -108.9575 4.1875 -82.4375 4.1875 C-82.4375 17.0575 -82.4375 29.9275 -82.4375 43.1875 C-79.66362831 40.41362831 -77.47629166 38.02625768 -75.1875 34.9375 C-60.659681 16.18006281 -39.03055574 4.27140174 -15.71484375 0.6015625 C-10.48682813 0.00046029 -5.25664775 0.00342453 0 0 Z " fill="#000000" transform="translate(589.4375,94.8125)"/>
<path d="M0 0 C26.4 0 52.8 0 80 0 C80 83.49 80 166.98 80 253 C53.6 253 27.2 253 0 253 C0 169.51 0 86.02 0 0 Z " fill="#000000" transform="translate(321,99)"/>
<path d="M0 0 C26.4 0 52.8 0 80 0 C80 19.8 80 39.6 80 60 C53.6 60 27.2 60 0 60 C0 40.2 0 20.4 0 0 Z " fill="#000000" transform="translate(321,6)"/>
<path d="M0 0 C1.05692047 0.00141495 2.11384094 0.0028299 3.20278931 0.00428772 C6.56490966 0.00986685 9.92696241 0.02241556 13.2890625 0.03515625 C15.57421779 0.04017394 17.85937412 0.04473638 20.14453125 0.04882812 C25.7343979 0.05982946 31.32422537 0.07654681 36.9140625 0.09765625 C36.79390413 3.44581947 36.65805122 6.79317514 36.51953125 10.140625 C36.46919739 11.55112122 36.46919739 11.55112122 36.41784668 12.9901123 C35.85295332 26.14323846 32.36796467 36.23686904 22.6015625 45.34765625 C12.23652701 53.65775006 -0.86510674 54.88647081 -13.7265625 53.62890625 C-22.87594493 52.18202717 -29.79208948 48.96367227 -36.0859375 42.09765625 C-40.90549185 35.41246795 -40.74814201 28.10169341 -40.0859375 20.09765625 C-38.37677774 13.45697182 -33.71055512 8.78500957 -28.0859375 5.09765625 C-18.80203317 0.75199891 -10.11083645 -0.05121321 0 0 Z " fill="#FEFEFE" transform="translate(1782.0859375,245.90234375)"/>
<path d="M0 0 C7.57917598 7.21351398 10.32365521 14.492149 11.78125 24.6953125 C11.78125 29.6453125 11.78125 34.5953125 11.78125 39.6953125 C-14.61875 39.6953125 -41.01875 39.6953125 -68.21875 39.6953125 C-68.21875 25.45337481 -67.70585825 13.48514895 -58.17578125 2.296875 C-42.84196526 -12.30417456 -16.46321266 -13.42696442 0 0 Z " fill="#FEFEFE" transform="translate(768.21875,163.3046875)"/>
</svg>
